<?xml version="1.0" encoding="iso-8859-1"?>
<!-- Generator: Adobe Illustrator 24.1.2, SVG Export Plug-In . SVG Version: 6.00 Build 0)  -->
<svg fill="#1A1A1A" version="1.1" baseProfile="basic" id="&#x421;&#x43B;&#x43E;&#x439;_1"
	 xmlns="http://www.w3.org/2000/svg" xmlns:xlink="http://www.w3.org/1999/xlink" x="0px" y="0px" viewBox="0 0 24 24"
	 xml:space="preserve">
<path marker-start="none" marker-end="none" style="fill-rule:evenodd;clip-rule:evenodd;" d="M4.999,3c1.104,0,2.001,0.893,2.001,2
	S6.103,7,4.999,7C3.895,7,2.998,6.107,2.998,5S3.895,3,4.999,3z"/>
<path style="fill:none;stroke:#000000;stroke-width:2;stroke-linecap:round;stroke-linejoin:round;" d="M4.999,4
	c1.447,0,2,1.053,2,2c0,2.82-2,5.132-2,8.001c0,3.072,2.888,6,7,6s7-2.928,7-6c0-2.869-2-5.181-2-8.001c0-0.947,0.553-2,2-2"/>
<path marker-start="none" marker-end="none" style="fill-rule:evenodd;clip-rule:evenodd;" d="M18.998,3
	c-1.104,0-2.001,0.893-2.001,2s0.897,2,2.001,2c1.104,0,2.001-0.893,2.001-2S20.102,3,18.998,3z"/>
<path style="fill:none;stroke:#000000;stroke-width:2;stroke-linecap:round;stroke-linejoin:round;" d="M5.999,21.001h12"/>
<path style="fill:none;stroke:#000000;stroke-width:2;stroke-linecap:round;stroke-linejoin:round;" d="M11.999,4.013v14.98"/>
<path style="fill:none;stroke:#000000;stroke-width:2;stroke-linecap:round;stroke-linejoin:round;" d="M8.999,5v13.997"/>
<path style="fill:none;stroke:#000000;stroke-width:2;stroke-linecap:round;stroke-linejoin:round;" d="M14.999,5v13.997"/>
<path style="fill:none;stroke:#000000;stroke-width:2;stroke-linecap:round;stroke-linejoin:round;" d="M6.991,7h10.008"/>
</svg>