<?xml version="1.0" encoding="iso-8859-1"?>
<!-- Generator: Adobe Illustrator 24.1.2, SVG Export Plug-In . SVG Version: 6.00 Build 0)  -->
<svg fill="#1A1A1A" version="1.1" baseProfile="basic" id="&#x421;&#x43B;&#x43E;&#x439;_1"
	 xmlns="http://www.w3.org/2000/svg" xmlns:xlink="http://www.w3.org/1999/xlink" x="0px" y="0px" viewBox="0 0 24 24"
	 xml:space="preserve">
<path marker-start="none" marker-end="none" style="fill:none;stroke:#000000;stroke-width:2;stroke-linecap:round;stroke-linejoin:round;" d="
	M1.981,7.99v12.02h20.023V7.99H1.981z"/>
<path marker-start="none" marker-end="none" style="fill:none;stroke:#000000;stroke-width:2;stroke-linecap:round;stroke-linejoin:round;" d="
	M6.993,13.009c1.101,0,1.997,0.896,1.997,1.997c0,1.101-0.896,1.997-1.997,1.997c-1.101,0-1.997-0.896-1.997-1.997
	C4.995,13.905,5.891,13.009,6.993,13.009z"/>
<path marker-start="none" marker-end="none" style="fill:none;stroke:#000000;stroke-width:2;stroke-linecap:round;stroke-linejoin:round;" d="
	M17.003,13.009c1.101,0,1.997,0.896,1.997,1.997c0,1.101-0.896,1.997-1.997,1.997c-1.101,0-1.997-0.896-1.997-1.997
	C15.006,13.905,15.902,13.009,17.003,13.009z"/>
<path style="fill:none;stroke:#000000;stroke-width:2;stroke-linecap:round;stroke-linejoin:round;" d="M22.003,10.001H1.998"/>
<path style="fill:none;stroke:#000000;stroke-width:2;stroke-linecap:round;stroke-linejoin:round;" d="M12.145,15.001h-0.277"/>
<path style="fill:none;stroke:#000000;stroke-width:2;stroke-linecap:round;stroke-linejoin:round;" d="M5.986,7.011V3.99h12.021
	v3.021"/>
<path marker-start="none" marker-end="none" style="fill-rule:evenodd;clip-rule:evenodd;" d="M1.997,9.002v0.999h20.001V9.002
	H1.997z"/>
</svg>