<?xml version="1.0" encoding="iso-8859-1"?>
<!-- Generator: Adobe Illustrator 28.2.0, SVG Export Plug-In . SVG Version: 6.00 Build 0)  -->
<svg fill="#1A1A1A" version="1.1" baseProfile="basic" id="Layer_1"
	 xmlns="http://www.w3.org/2000/svg" xmlns:xlink="http://www.w3.org/1999/xlink" x="0px" y="0px" viewBox="0 0 24 24"
	 xml:space="preserve">
<path style="fill:none;stroke:#000000;stroke-width:2;stroke-linecap:round;stroke-linejoin:round;stroke-miterlimit:10;" d="M21,13
	v-1c0-4.971-4.029-9-9-9s-9,4.029-9,9v1"/>
<path d="M16.518,22.346L16.518,22.346c-0.762-0.242-1.183-1.057-0.941-1.818l1.755-5.519c0.242-0.762,1.057-1.183,1.818-0.941l0,0
	c0.762,0.242,1.183,1.057,0.941,1.818l-1.755,5.519C18.094,22.168,17.28,22.589,16.518,22.346z"/>
<path d="M18.358,22.931L18.358,22.931c-0.762-0.242-1.183-1.057-0.941-1.818l1.755-5.519c0.242-0.762,1.057-1.183,1.818-0.941l0,0
	c0.762,0.242,1.183,1.057,0.941,1.818l-1.755,5.519C19.934,22.753,19.12,23.174,18.358,22.931z"/>
<path d="M7.482,22.346L7.482,22.346c0.762-0.242,1.183-1.057,0.941-1.818l-1.755-5.519c-0.242-0.762-1.057-1.183-1.818-0.941l0,0
	c-0.762,0.242-1.183,1.057-0.941,1.818l1.755,5.519C5.906,22.168,6.72,22.589,7.482,22.346z"/>
<path d="M5.642,22.931L5.642,22.931c0.762-0.242,1.183-1.057,0.941-1.818l-1.755-5.519c-0.242-0.762-1.057-1.183-1.818-0.941l0,0
	c-0.762,0.242-1.183,1.057-0.941,1.818l1.755,5.519C4.066,22.753,4.88,23.174,5.642,22.931z"/>
</svg>