<?xml version="1.0" encoding="iso-8859-1"?>
<!-- Generator: Adobe Illustrator 24.1.2, SVG Export Plug-In . SVG Version: 6.00 Build 0)  -->
<svg fill="#1A1A1A" version="1.1" baseProfile="basic" id="&#x421;&#x43B;&#x43E;&#x439;_1"
	 xmlns="http://www.w3.org/2000/svg" xmlns:xlink="http://www.w3.org/1999/xlink" x="0px" y="0px" viewBox="0 0 24 24"
	 xml:space="preserve">
<path marker-start="none" marker-end="none" style="fill:none;stroke:#000000;stroke-width:2;stroke-linecap:round;stroke-linejoin:round;" d="
	M11.999,8c3.863,0,6.999,3.133,6.999,7s-3.136,7-6.999,7c-3.863,0-6.999-3.133-6.999-7S8.137,8,11.999,8z"/>
<path marker-start="none" marker-end="none" style="fill:none;stroke:#000000;stroke-width:2;stroke-linecap:round;stroke-linejoin:round;" d="
	M11.999,8c1.659,0,3.007,3.133,3.007,7s-1.348,7-3.007,7c-1.659,0-3.007-3.133-3.007-7S10.341,8,11.999,8z"/>
<path style="fill:none;stroke:#000000;stroke-width:2;stroke-linecap:round;stroke-linejoin:round;" d="M5.997,15h12.005"/>
<path marker-start="none" marker-end="none" style="fill:none;stroke:#000000;stroke-width:2;stroke-linecap:round;stroke-linejoin:round;" d="
	M0.999,14v3c0,1.107,0.897,2,2,2h1c0.552,0,1-0.453,1-1v-5c0-0.547-0.448-1-1-1h-1C1.897,12,0.999,12.893,0.999,14z"/>
<path marker-start="none" marker-end="none" style="fill:none;stroke:#000000;stroke-width:2;stroke-linecap:round;stroke-linejoin:round;" d="
	M22.999,14v3c0,1.107-0.897,2-2,2h-1c-0.552,0-1-0.453-1-1v-5c0-0.547,0.448-1,1-1h1C22.102,12,22.999,12.893,22.999,14z"/>
<path style="fill:none;stroke:#000000;stroke-width:2;stroke-linecap:round;stroke-linejoin:round;" d="M0.999,14v-1
	c0-6.067,4.929-11,11-11s11,4.933,11,11v1"/>
</svg>