<?xml version="1.0" encoding="iso-8859-1"?>
<!-- Generator: Adobe Illustrator 28.4.1, SVG Export Plug-In . SVG Version: 6.00 Build 0)  -->
<svg fill="#1A1A1A" version="1.1" baseProfile="basic" id="&#x421;&#x43B;&#x43E;&#x439;_1"
	 xmlns="http://www.w3.org/2000/svg" xmlns:xlink="http://www.w3.org/1999/xlink" x="0px" y="0px" viewBox="0 0 24 24"
	 xml:space="preserve">
<path d="M8.758,5c0.267,0,0.517,0.104,0.706,0.292l1.093,1.093C11.598,7.426,12.983,8,14.456,8h4.52C19.54,8,20,8.46,20,9.025V19H4
	V5.998C4,5.448,4.448,5,4.998,5H8.758 M8.758,3h-3.76C3.342,3,2,4.342,2,5.998V19c0,1.105,0.895,2,2,2h16c1.105,0,2-0.895,2-2V9.025
	C22,7.354,20.646,6,18.975,6h-4.52c-0.932,0-1.826-0.37-2.485-1.029l-1.093-1.093C10.316,3.316,9.553,3,8.758,3L8.758,3z"/>
<line style="fill:none;stroke:#000000;stroke-width:2;stroke-linecap:round;stroke-linejoin:round;stroke-miterlimit:10;" x1="3" y1="11" x2="21" y2="11"/>
<line style="fill:none;stroke:#000000;stroke-width:2;stroke-linecap:round;stroke-linejoin:round;stroke-miterlimit:10;" x1="7" y1="11" x2="7" y2="16"/>
<line style="fill:none;stroke:#000000;stroke-width:2;stroke-linecap:round;stroke-linejoin:round;stroke-miterlimit:10;" x1="12" y1="11" x2="12" y2="16"/>
<line style="fill:none;stroke:#000000;stroke-width:2;stroke-linecap:round;stroke-linejoin:round;stroke-miterlimit:10;" x1="17" y1="11" x2="17" y2="16"/>
</svg>