<?xml version="1.0" encoding="iso-8859-1"?>
<!-- Generator: Adobe Illustrator 24.1.2, SVG Export Plug-In . SVG Version: 6.00 Build 0)  -->
<svg fill="#1A1A1A" version="1.1" baseProfile="basic" id="&#x421;&#x43B;&#x43E;&#x439;_1"
	 xmlns="http://www.w3.org/2000/svg" xmlns:xlink="http://www.w3.org/1999/xlink" x="0px" y="0px" viewBox="0 0 24 24"
	 xml:space="preserve">
<path marker-start="none" marker-end="none" style="fill:none;stroke:#000000;stroke-width:2;stroke-linejoin:round;stroke-miterlimit:79.8403;" d="
	M5.711,19.295l-1.013-1.011c-1.052-1.052-1.704-1.907-1.704-2.777c0-0.951,0.627-1.747,1.645-2.763l0.543-0.533l0.131,0.1
	c0.42,0.32,0.981,0.684,1.677,0.684c2.225,0,3.619-2.276,3.929-4.185l0.035-0.415l0.327-0.396l0.411-0.409
	c0.417-0.367,0.845-0.589,1.293-0.589c0.672,0,1.112,0.531,2.288,1.708c1.18,1.176,1.721,1.631,1.721,2.3
	c0,0.448-0.223,0.876-0.589,1.293l-0.409,0.411l-0.397,0.328l-0.437,0.037c-1.885,0.308-4.161,1.701-4.161,3.927
	c0,0.696,0.365,1.257,0.685,1.677l0.1,0.129l-0.535,0.544c-1.015,1.019-1.812,1.645-2.761,1.645
	C7.618,21.001,6.761,20.349,5.711,19.295z"/>
<path marker-start="none" marker-end="none" style="fill-rule:evenodd;clip-rule:evenodd;" d="M13.415,11.881l-1.301-1.301
	c-0.167-0.169-0.16-0.445,0.017-0.604l8.583-7.867c0.076-0.068,0.176-0.108,0.28-0.108h0.584c0.228,0,0.416,0.188,0.416,0.416v0.584
	c0,0.104-0.04,0.204-0.108,0.28l-7.867,8.583C13.861,12.041,13.585,12.047,13.415,11.881z"/>
<path marker-start="none" marker-end="none" style="fill-rule:evenodd;clip-rule:evenodd;" d="M17.673,4.001
	c0.375,0,0.681,0.305,0.681,0.68c0,0.375-0.307,0.68-0.681,0.68c-0.375,0-0.681-0.305-0.681-0.68
	C16.991,4.306,17.298,4.001,17.673,4.001z"/>
<path marker-start="none" marker-end="none" style="fill-rule:evenodd;clip-rule:evenodd;" d="M18.674,3.001
	c0.375,0,0.681,0.305,0.681,0.68s-0.307,0.68-0.681,0.68c-0.375,0-0.681-0.305-0.681-0.68S18.299,3.001,18.674,3.001z"/>
<path marker-start="none" marker-end="none" style="fill-rule:evenodd;clip-rule:evenodd;" d="M20.311,4.642
	c0.375,0,0.681,0.305,0.681,0.68c0,0.375-0.307,0.68-0.681,0.68s-0.681-0.305-0.681-0.68C19.63,4.947,19.937,4.642,20.311,4.642z"/>
<path marker-start="none" marker-end="none" style="fill-rule:evenodd;clip-rule:evenodd;" d="M21.311,3.642
	c0.375,0,0.681,0.305,0.681,0.68s-0.307,0.68-0.681,0.68c-0.375,0-0.681-0.305-0.681-0.68S20.937,3.642,21.311,3.642z"/>
<path marker-start="none" marker-end="none" style="fill-rule:evenodd;clip-rule:evenodd;" d="M2.078,21.307l4.372-5.123
	c0.157-0.22,0.475-0.247,0.665-0.056l0.751,0.751c0.191,0.191,0.164,0.508-0.056,0.665l-5.123,4.372
	C2.289,22.201,1.794,21.706,2.078,21.307z"/>
</svg>