<?xml version="1.0" encoding="iso-8859-1"?>
<!-- Generator: Adobe Illustrator 24.1.2, SVG Export Plug-In . SVG Version: 6.00 Build 0)  -->
<svg fill="#1A1A1A" version="1.1" baseProfile="basic" id="&#x421;&#x43B;&#x43E;&#x439;_1"
	 xmlns="http://www.w3.org/2000/svg" xmlns:xlink="http://www.w3.org/1999/xlink" x="0px" y="0px" viewBox="0 0 24 24"
	 xml:space="preserve">
<path marker-start="none" marker-end="none" style="fill:none;stroke:#000000;stroke-width:2;stroke-linecap:round;stroke-linejoin:round;" d="
	M11.999,9.991c1.108,0,2.009,0.901,2.009,2.009c0,1.108-0.901,2.009-2.009,2.009S9.99,13.109,9.99,12.001
	C9.99,10.893,10.891,9.991,11.999,9.991z"/>
<path marker-start="none" marker-end="none" style="fill:none;stroke:#000000;stroke-width:2;stroke-linecap:round;stroke-linejoin:round;" d="
	M11.999,3.997c4.417,0,8.004,3.587,8.004,8.004s-3.587,8.004-8.004,8.004c-4.417,0-8.004-3.587-8.004-8.004
	S7.582,3.997,11.999,3.997z"/>
<path marker-start="none" marker-end="none" style="fill:none;stroke:#000000;stroke-width:2;stroke-linecap:round;stroke-linejoin:round;" d="
	M4.433,6.567c-0.589-0.588-0.589-1.545,0-2.133c0.588-0.589,1.545-0.589,2.133,0c0.085,0.087,0.508,0.507,0.945,0.94
	C6.673,5.943,5.947,6.669,5.377,7.506C4.939,7.074,4.517,6.654,4.433,6.567z"/>
<path marker-start="none" marker-end="none" style="fill:none;stroke:#000000;stroke-width:2;stroke-linecap:round;stroke-linejoin:round;" d="
	M17.433,4.434c0.588-0.589,1.545-0.589,2.133,0c0.589,0.588,0.589,1.545,0,2.133c-0.087,0.085-0.507,0.508-0.94,0.945
	c-0.569-0.839-1.295-1.564-2.132-2.135C16.926,4.941,17.346,4.518,17.433,4.434z"/>
<path marker-start="none" marker-end="none" style="fill:none;stroke:#000000;stroke-width:2;stroke-linecap:round;stroke-linejoin:round;" d="
	M19.566,17.434c0.589,0.588,0.589,1.545,0,2.133c-0.588,0.589-1.545,0.589-2.133,0c-0.085-0.087-0.508-0.507-0.945-0.94
	c0.839-0.569,1.564-1.295,2.135-2.132C19.059,16.927,19.482,17.347,19.566,17.434z"/>
<path marker-start="none" marker-end="none" style="fill:none;stroke:#000000;stroke-width:2;stroke-linecap:round;stroke-linejoin:round;" d="
	M6.566,19.567c-0.588,0.589-1.545,0.589-2.133,0c-0.589-0.588-0.589-1.545,0-2.133c0.087-0.085,0.507-0.508,0.94-0.945
	c0.569,0.839,1.295,1.564,2.132,2.135C7.073,19.061,6.653,19.483,6.566,19.567z"/>
</svg>