<?xml version="1.0" encoding="iso-8859-1"?>
<!-- Generator: Adobe Illustrator 24.1.2, SVG Export Plug-In . SVG Version: 6.00 Build 0)  -->
<svg fill="#1A1A1A" version="1.1" baseProfile="basic" id="&#x421;&#x43B;&#x43E;&#x439;_1"
	 xmlns="http://www.w3.org/2000/svg" xmlns:xlink="http://www.w3.org/1999/xlink" x="0px" y="0px" viewBox="0 0 24 24"
	 xml:space="preserve">
<path marker-start="none" marker-end="none" style="fill:none;stroke:#000000;stroke-width:2;stroke-linecap:round;stroke-linejoin:round;" d="
	M16.997,20.001c2.761,0,5-2.239,5-5c0-2.067-1.253-3.837-3.04-4.6c0.017-0.132,0.04-0.263,0.04-0.4c0-1.657-1.343-3-3-3
	c-0.259,0-0.505,0.043-0.745,0.105c-1.021-1.851-2.992-3.105-5.255-3.105c-3.313,0-6,2.687-6,6c0,0.327,0.033,0.643,0.084,0.955
	c-1.257,0.907-2.084,2.376-2.084,4.045c0,2.761,2.24,5,5,5H16.997z"/>
<path marker-start="none" marker-end="none" d="M12.994,15.001c0-1.104-1.12-2-2.499-2c-1.379,0-2.499,0.896-2.499,2s1.12,2,2.499,2
	C11.874,17.001,12.994,16.105,12.994,15.001z"/>
<path style="fill:none;stroke:#000000;stroke-width:2;stroke-linecap:round;stroke-linejoin:round;" d="M11.994,15.063V9.001
	c0.363,1.815,2.999,1.02,2.999,3"/>
</svg>