<?xml version="1.0" encoding="iso-8859-1"?>
<!-- Generator: Adobe Illustrator 28.4.1, SVG Export Plug-In . SVG Version: 6.00 Build 0)  -->
<svg fill="#1A1A1A" version="1.1" baseProfile="basic" id="&#x421;&#x43B;&#x43E;&#x439;_1"
	 xmlns="http://www.w3.org/2000/svg" xmlns:xlink="http://www.w3.org/1999/xlink" x="0px" y="0px" viewBox="0 0 24 24"
	 xml:space="preserve">
<path d="M21,7v11H2V7H21 M21,5H2C0.895,5,0,5.895,0,7v11c0,1.105,0.895,2,2,2h19c1.105,0,2-0.895,2-2V7C23,5.895,22.105,5,21,5L21,5
	z"/>
<path d="M7.5,11C8.327,11,9,11.673,9,12.5S8.327,14,7.5,14S6,13.327,6,12.5S6.673,11,7.5,11 M7.5,9C5.567,9,4,10.567,4,12.5
	S5.567,16,7.5,16s3.5-1.567,3.5-3.5S9.433,9,7.5,9L7.5,9z"/>
<line style="fill:none;stroke:#000000;stroke-width:2;stroke-linecap:round;stroke-miterlimit:10;" x1="5" y1="2" x2="21" y2="6"/>
<circle cx="18" cy="15" r="1"/>
<circle cx="14" cy="15" r="1"/>
<line style="fill:none;stroke:#000000;stroke-width:2;stroke-linecap:round;stroke-miterlimit:10;" x1="14" y1="11" x2="18" y2="11"/>
</svg>