<?xml version="1.0" encoding="iso-8859-1"?>
<!-- Generator: Adobe Illustrator 28.2.0, SVG Export Plug-In . SVG Version: 6.00 Build 0)  -->
<svg fill="#1A1A1A" version="1.1" baseProfile="basic" id="Layer_1"
	 xmlns="http://www.w3.org/2000/svg" xmlns:xlink="http://www.w3.org/1999/xlink" x="0px" y="0px" viewBox="0 0 24 24"
	 xml:space="preserve">
<path style="fill:none;stroke:#000000;stroke-width:2;stroke-linecap:round;stroke-linejoin:round;stroke-miterlimit:10;" d="
	M4.543,19.457c2.45,2.45,5.201,3.67,7.711,1.16c1.837-1.837,1.674-3.806,2.329-4.461c0.655-0.655,1.672-1.019,2.646-1.993
	c1.61-1.61,0.515-3.682-1.598-5.795s-4.185-3.208-5.795-1.598C8.863,7.745,8.499,8.762,7.844,9.417
	c-0.655,0.655-2.624,0.492-4.461,2.329C0.873,14.256,2.093,17.007,4.543,19.457z"/>
<line style="fill:none;stroke:#000000;stroke-width:2;stroke-linecap:round;stroke-linejoin:round;stroke-miterlimit:10;" x1="12" y1="12" x2="21.696" y2="2.304"/>
<path d="M21.173,0.222l-1.634,1.634c-0.719,0.719-0.719,1.885,0,2.605l0,0c0.719,0.719,1.885,0.719,2.605,0l1.634-1.634
	c0.296-0.296,0.296-0.777,0-1.073l-1.531-1.531C21.95-0.074,21.47-0.074,21.173,0.222z"/>
<line style="fill:none;stroke:#000000;stroke-width:2;stroke-linecap:round;stroke-linejoin:round;stroke-miterlimit:10;" x1="9" y1="17" x2="7" y2="15"/>
<circle cx="12" cy="12" r="2"/>
</svg>