<?xml version="1.0" encoding="iso-8859-1"?>
<!-- Generator: Adobe Illustrator 28.4.1, SVG Export Plug-In . SVG Version: 6.00 Build 0)  -->
<svg fill="#1A1A1A" version="1.1" baseProfile="basic" id="&#x421;&#x43B;&#x43E;&#x439;_1"
	 xmlns="http://www.w3.org/2000/svg" xmlns:xlink="http://www.w3.org/1999/xlink" x="0px" y="0px" viewBox="0 0 24 24"
	 xml:space="preserve">
<path d="M12,4c4.411,0,8,3.589,8,8s-3.589,8-8,8s-8-3.589-8-8S7.589,4,12,4 M12,2C6.477,2,2,6.477,2,12s4.477,10,10,10
	s10-4.477,10-10S17.523,2,12,2L12,2z"/>
<path d="M12,9c1.654,0,3,1.346,3,3s-1.346,3-3,3s-3-1.346-3-3S10.346,9,12,9 M12,7c-2.761,0-5,2.239-5,5s2.239,5,5,5s5-2.239,5-5
	S14.761,7,12,7L12,7z"/>
<path d="M12,11c-0.552,0-1,0.448-1,1s0.448,1,1,1s1-0.448,1-1S12.552,11,12,11L12,11z"/>
<g>
	<path d="M9.724,15.284l-1.849,3.903L4.818,16.13l3.902-1.848c-0.38-0.546-0.612-1.193-0.681-1.891l-4.887,2.315L9.3,20.852
		l2.317-4.89C10.919,15.894,10.271,15.664,9.724,15.284z"/>
	<path d="M14.279,8.718l1.845-3.895l3.058,3.057l-3.896,1.845c0.379,0.547,0.609,1.195,0.676,1.893l4.994-2.366l-6.191-6.232
		l-2.377,5.018C13.086,8.107,13.733,8.339,14.279,8.718z"/>
</g>
</svg>