<?xml version="1.0" encoding="iso-8859-1"?>
<!-- Generator: Adobe Illustrator 24.1.2, SVG Export Plug-In . SVG Version: 6.00 Build 0)  -->
<svg fill="#1A1A1A" version="1.1" baseProfile="basic" id="&#x421;&#x43B;&#x43E;&#x439;_1"
	 xmlns="http://www.w3.org/2000/svg" xmlns:xlink="http://www.w3.org/1999/xlink" x="0px" y="0px" viewBox="0 0 24 24"
	 xml:space="preserve">
<path style="fill:none;stroke:#000000;stroke-width:3;stroke-linecap:round;stroke-linejoin:round;stroke-miterlimit:79.8403;" d="
	M19.217,9.4l1.28-0.907"/>
<path style="fill:none;stroke:#000000;stroke-width:2;stroke-linecap:round;stroke-linejoin:round;stroke-miterlimit:79.8403;" d="
	M15.997,11l2,2l1-2"/>
<path marker-start="none" marker-end="none" style="fill-rule:evenodd;clip-rule:evenodd;" d="M6.994,13.36L6.995,9h1.651l0,0
	c0-0.547,0.448-1,1-1h1.073l1.156,2.88c-0.568-0.253-1.129-0.28-1.609,0.08c-0.585,0.44-0.411,1.56-1.004,2
	C8.618,13.44,7.798,13.4,6.994,13.36z M14.85,12.92l-1.911-4.76C13.615,8.333,14.249,8.64,14.79,9l1.761,1.173
	c0.459,0.307,0.583,0.92,0.276,1.387c-0.265,0.387-0.764,0.533-1.191,0.373L14.85,12.92z"/>
<path marker-start="none" marker-end="none" style="fill-rule:evenodd;clip-rule:evenodd;" d="M10.495,14
	c0.828,0,1.501,0.667,1.501,1.507c0,0.827-0.673,1.493-1.501,1.493c-0.828,0-1.501-0.667-1.501-1.493
	C8.994,14.667,9.667,14,10.495,14z"/>
<path marker-start="none" marker-end="none" style="fill:none;stroke:#000000;stroke-width:2;stroke-linejoin:round;stroke-miterlimit:79.8403;" d="
	M5.067,19.853c-1.556-2.16-1.355-4.6,0.152-5.733c0.913-0.68,2.753-0.08,4.141-1.12c0.776-0.573,0.793-1.333,1.204-1.64
	c0.733-0.547,2.092,0.387,3.213,1.947c1.137,1.573,1.607,3.16,0.849,3.733c-0.453,0.347-1.36-0.227-2.168,0.373
	c-1.453,1.093-0.976,3.227-2.009,4C8.953,22.547,6.618,22.013,5.067,19.853z"/>
<path style="fill:none;stroke:#000000;stroke-width:2;stroke-linecap:round;stroke-linejoin:round;stroke-miterlimit:79.8403;" d="
	M10.521,15.533l9.476-6.68"/>
<path marker-start="none" marker-end="none" style="fill-rule:evenodd;clip-rule:evenodd;" d="M7.997,4.507c0-0.173,0-0.827,0-1
	C7.997,2.12,9.118,1,10.497,1c1.379,0,2.5,1.12,2.5,2.507c0,0.173,0,0.827,0,1c0,1.373-1.121,2.493-2.5,2.493
	C9.118,7,7.997,5.88,7.997,4.507z"/>
<path style="fill:none;stroke:#000000;stroke-width:2;stroke-linecap:round;stroke-linejoin:round;stroke-miterlimit:79.8403;" d="
	M5.997,16l-3-4l3.144-1.88C7.191,9.48,8.421,9,9.646,9"/>
<path marker-start="none" marker-end="none" style="fill-rule:evenodd;clip-rule:evenodd;" d="M3.895,12.6l4.249-1.987l-0.309-1.24
	l-4.431,2.52L3.895,12.6z"/>
</svg>