<?xml version="1.0" encoding="iso-8859-1"?>
<!-- Generator: Adobe Illustrator 24.1.2, SVG Export Plug-In . SVG Version: 6.00 Build 0)  -->
<svg fill="#1A1A1A" version="1.1" baseProfile="basic" id="&#x421;&#x43B;&#x43E;&#x439;_1"
	 xmlns="http://www.w3.org/2000/svg" xmlns:xlink="http://www.w3.org/1999/xlink" x="0px" y="0px" viewBox="0 0 24 24"
	 xml:space="preserve">
<path marker-start="none" marker-end="none" style="fill:none;stroke:#000000;stroke-width:2;stroke-linecap:round;stroke-linejoin:round;" d="
	M11.997,21c0.892,0,8.999-5.947,8.999-11.493C20.995,6.693,19.05,4,15.497,4c-2.173,0-3.5,1.693-3.5,1.693S10.669,4,8.497,4
	c-3.555,0-5.5,2.693-5.5,5.507C2.997,15.053,11.105,21,11.997,21z"/>
<path marker-start="none" marker-end="none" d="M13.995,15c0-1.107-1.12-2-2.499-2c-1.379,0-2.499,0.893-2.499,2s1.12,2,2.499,2
	C12.875,17,13.995,16.107,13.995,15z"/>
<path style="fill:none;stroke:#000000;stroke-width:2;stroke-linecap:round;stroke-linejoin:round;" d="M12.995,15.067V9
	c0.363,1.813,2.999,1.027,2.999,3"/>
</svg>