<?xml version="1.0" encoding="iso-8859-1"?>
<!-- Generator: Adobe Illustrator 24.1.2, SVG Export Plug-In . SVG Version: 6.00 Build 0)  -->
<svg fill="#1A1A1A" version="1.1" baseProfile="basic" id="&#x421;&#x43B;&#x43E;&#x439;_1"
	 xmlns="http://www.w3.org/2000/svg" xmlns:xlink="http://www.w3.org/1999/xlink" x="0px" y="0px" viewBox="0 0 24 24"
	 xml:space="preserve">
<path style="fill:none;stroke:#000000;stroke-width:2;stroke-linecap:round;stroke-linejoin:round;" d="M13.997,9v13h1.185
	l0.607-1.133c0.667-1.053,1.46-1.84,2.711-2.467l0.476-0.213l-0.057-1.067c-0.335-3.147-1.681-5.933-1.903-10.387
	c-0.008-0.16,0.052-0.293,0.16-0.4c0.496-0.453,0.807-1.107,0.807-1.827c0-1.373-1.116-2.493-2.488-2.493
	c-1.051,0-1.952,0.653-2.319,1.573L6.107,19.293L9.705,22h1.291v-6"/>
<path style="fill:none;stroke:#000000;stroke-width:2;stroke-linecap:round;stroke-linejoin:round;" d="M4.273,16.467l0.433-0.947"
	/>
<path style="fill:none;stroke:#000000;stroke-width:1;stroke-linecap:round;stroke-linejoin:round;" d="M4.574,16.027l2.048,0.933"
	/>
<path style="fill:none;stroke:#000000;stroke-width:2;stroke-linecap:round;stroke-linejoin:round;" d="M6.95,10.507l0.433-0.96"/>
<path style="fill:none;stroke:#000000;stroke-width:1;stroke-linecap:round;stroke-linejoin:round;" d="M7.251,10.067L9.299,11"/>
<path style="fill:none;stroke:#000000;stroke-width:2;stroke-linecap:round;stroke-linejoin:round;" d="M9.629,4.533l0.433-0.947"/>
<path style="fill:none;stroke:#000000;stroke-width:1;stroke-linecap:round;stroke-linejoin:round;" d="M9.93,4.093l2.048,0.933"/>
</svg>