<?xml version="1.0" encoding="iso-8859-1"?>
<!-- Generator: Adobe Illustrator 28.2.0, SVG Export Plug-In . SVG Version: 6.00 Build 0)  -->
<svg fill="#1A1A1A" version="1.1" baseProfile="basic" id="Layer_1"
	 xmlns="http://www.w3.org/2000/svg" xmlns:xlink="http://www.w3.org/1999/xlink" x="0px" y="0px" viewBox="0 0 24 24"
	 xml:space="preserve">
<path style="fill:none;stroke:#000000;stroke-width:2;stroke-linecap:round;stroke-linejoin:round;stroke-miterlimit:10;" d="M21,17
	v-4.692c0-4.794-3.617-8.979-8.401-9.289C7.357,2.68,3,6.831,3,12v5"/>
<path style="fill:none;stroke:#000000;stroke-width:2;stroke-linecap:round;stroke-linejoin:round;stroke-miterlimit:10;" d="M18,21
	h-1c-0.552,0-1-0.448-1-1v-5c0-0.552,0.448-1,1-1h1c1.657,0,3,1.343,3,3v1C21,19.657,19.657,21,18,21z"/>
<path style="fill:none;stroke:#000000;stroke-width:2;stroke-linecap:round;stroke-linejoin:round;stroke-miterlimit:10;" d="M6,14
	h1c0.552,0,1,0.448,1,1v5c0,0.552-0.448,1-1,1H6c-1.657,0-3-1.343-3-3v-1C3,15.343,4.343,14,6,14z"/>
</svg>