<?xml version="1.0" encoding="iso-8859-1"?>
<!-- Generator: Adobe Illustrator 28.4.1, SVG Export Plug-In . SVG Version: 6.00 Build 0)  -->
<svg fill="#1A1A1A" version="1.1" baseProfile="basic" id="&#x421;&#x43B;&#x43E;&#x439;_1"
	 xmlns="http://www.w3.org/2000/svg" xmlns:xlink="http://www.w3.org/1999/xlink" x="0px" y="0px" viewBox="0 0 24 24"
	 xml:space="preserve">
<path d="M5.5,5.005c0.088,0,0.178,0.003,0.269,0.01C7.581,5.147,9,6.78,9,8.733L9,20H7v-7.026c0-1.1-0.904-1.994-2.004-2
	C4.546,10.971,3.508,10.819,3,10.371l0.002-4.48C3.554,5.481,4.426,5.005,5.5,5.005 M3.002,5.878h0.005H3.002 M5.5,3.005
	c-1.671,0-2.975,0.739-3.739,1.317C1.272,4.691,1,5.28,1,5.892l0,4.492c0,0.459,0.135,0.923,0.446,1.261
	c1.205,1.309,3.419,1.329,3.548,1.329c0.004,0,0.006,0,0.006,0V20c0,1.105,0.895,2,2,2h2c1.105,0,2-0.895,2-2l0-11.267
	c0-2.918-2.175-5.501-5.085-5.713C5.774,3.01,5.636,3.005,5.5,3.005L5.5,3.005z"/>
<path d="M18.5,5.005c1.075,0,1.947,0.477,2.5,0.888l-0.004,4.481c-0.509,0.445-1.543,0.597-1.976,0.6c-0.007,0-0.014,0-0.02,0
	c-0.527,0-1.032,0.208-1.407,0.579C17.213,11.928,17,12.44,17,12.974V20h-2l0-11.267c0-1.953,1.419-3.586,3.231-3.718
	C18.322,5.008,18.412,5.005,18.5,5.005 M18.5,3.005c-0.136,0-0.274,0.005-0.415,0.015C15.175,3.232,13,5.815,13,8.733L13,20
	c0,1.105,0.895,2,2,2h2c1.105,0,2-0.895,2-2v-7.026c0,0,0.002,0,0.006,0c0.129,0,2.343-0.019,3.548-1.329
	C22.865,11.307,23,10.843,23,10.384l0-4.492c0-0.612-0.272-1.201-0.761-1.57C21.475,3.744,20.171,3.005,18.5,3.005L18.5,3.005z"/>
<circle cx="6" cy="8" r="1"/>
<circle cx="18" cy="8" r="1"/>
<line style="fill:none;stroke:#000000;stroke-width:2;stroke-miterlimit:10;" x1="6" y1="17" x2="10" y2="17"/>
<line style="fill:none;stroke:#000000;stroke-width:2;stroke-miterlimit:10;" x1="14" y1="17" x2="18" y2="17"/>
</svg>