<?xml version="1.0" encoding="iso-8859-1"?>
<!-- Generator: Adobe Illustrator 24.1.2, SVG Export Plug-In . SVG Version: 6.00 Build 0)  -->
<svg fill="#1A1A1A" version="1.1" baseProfile="basic" id="&#x421;&#x43B;&#x43E;&#x439;_1"
	 xmlns="http://www.w3.org/2000/svg" xmlns:xlink="http://www.w3.org/1999/xlink" x="0px" y="0px" viewBox="0 0 24 24"
	 xml:space="preserve">
<path style="fill:none;stroke:#000000;stroke-width:2;stroke-linecap:round;stroke-linejoin:round;" d="M12.379,13.253L14.997,15"/>
<path marker-start="none" marker-end="none" style="fill:none;stroke:#000000;stroke-width:2;stroke-linecap:round;stroke-linejoin:round;" d="
	M14.997,15h-2c-2.577,0-4,1.053-4,3c0,2.533,3.585,3.893,6,5c-0.868-1.133-2-2.32-2-5C12.997,16.16,13.858,15,14.997,15z"/>
<path style="fill:none;stroke:#000000;stroke-width:2;stroke-linecap:round;stroke-linejoin:round;" d="M8.231,1l2.101,1.493"/>
<path marker-start="none" marker-end="none" style="fill:none;stroke:#000000;stroke-width:2;stroke-linecap:round;stroke-linejoin:round;" d="
	M12.723,13.48l-4-2.667C7.973,10.32,7.77,9.293,8.271,8.547l2.449-3.667C11.222,4.133,11.023,3,10.27,2.453l4,2.827
	c0.753,0.547,0.952,1.52,0.451,2.267l-2.449,3.667C11.77,11.96,11.973,12.987,12.723,13.48z"/>
</svg>