<?xml version="1.0" encoding="iso-8859-1"?>
<!-- Generator: Adobe Illustrator 24.1.2, SVG Export Plug-In . SVG Version: 6.00 Build 0)  -->
<svg fill="#1A1A1A" version="1.1" baseProfile="basic" id="&#x421;&#x43B;&#x43E;&#x439;_1"
	 xmlns="http://www.w3.org/2000/svg" xmlns:xlink="http://www.w3.org/1999/xlink" x="0px" y="0px" viewBox="0 0 24 24"
	 xml:space="preserve">
<path style="fill:none;stroke:#000000;stroke-width:2;stroke-linecap:round;stroke-linejoin:round;" d="M2.99,13.002h18"/>
<path marker-start="none" marker-end="none" style="fill:none;stroke:#000000;stroke-width:2;stroke-linecap:round;stroke-linejoin:round;" d="
	M2.987,6.006v11.991c0,1.107,0.9,2.007,2.007,2.007h13.991c1.107,0,2.007-0.9,2.007-2.007V6.006c0-1.107-0.9-2.007-2.007-2.007
	H4.994C3.887,3.999,2.987,4.899,2.987,6.006z"/>
<path marker-start="none" marker-end="none" style="fill-rule:evenodd;clip-rule:evenodd;" d="M4.989,8.019v0.967
	c0,0.56,0.456,1.016,1.016,1.016h2.969c0.56,0,1.016-0.456,1.016-1.016V8.019c0-0.56-0.456-1.016-1.016-1.016H6.005
	C5.445,7.003,4.989,7.459,4.989,8.019z"/>
<path marker-start="none" marker-end="none" style="fill-rule:evenodd;clip-rule:evenodd;" d="M17.49,7.002
	c0.828,0,1.5,0.672,1.5,1.5s-0.672,1.5-1.5,1.5c-0.828,0-1.5-0.672-1.5-1.5S16.662,7.002,17.49,7.002z"/>
<path marker-start="none" marker-end="none" style="fill-rule:evenodd;clip-rule:evenodd;" d="M13.49,7.002
	c0.828,0,1.5,0.672,1.5,1.5s-0.672,1.5-1.5,1.5c-0.828,0-1.5-0.672-1.5-1.5S12.662,7.002,13.49,7.002z"/>
<path style="fill:none;stroke:#000000;stroke-width:1;stroke-linecap:round;stroke-linejoin:round;" d="M6.491,14.002v2.5"/>
<path style="fill:none;stroke:#000000;stroke-width:1;stroke-linecap:round;stroke-linejoin:round;" d="M8.478,14.002v2.5"/>
<path style="fill:none;stroke:#000000;stroke-width:1;stroke-linecap:round;stroke-linejoin:round;" d="M17.49,14.002v2.5"/>
<path style="fill:none;stroke:#000000;stroke-width:1;stroke-linecap:round;stroke-linejoin:round;" d="M13.49,14.002v2.5"/>
<path style="fill:none;stroke:#000000;stroke-width:1;stroke-linecap:round;stroke-linejoin:round;" d="M15.487,14.002v2.5"/>
</svg>