<?xml version="1.0" encoding="iso-8859-1"?>
<!-- Generator: Adobe Illustrator 26.1.0, SVG Export Plug-In . SVG Version: 6.00 Build 0)  -->
<svg fill="#1A1A1A" version="1.1" baseProfile="basic" id="Layer_1"
	 xmlns="http://www.w3.org/2000/svg" xmlns:xlink="http://www.w3.org/1999/xlink" x="0px" y="0px" viewBox="0 0 24 24"
	 xml:space="preserve">
<g>
	<path d="M23,4H1C0.447,4,0,4.447,0,5v13c0,0.553,0.447,1,1,1h22c0.553,0,1-0.447,1-1V5C24,4.447,23.553,4,23,4z M22,17H2V6h20V17z"
		/>
	<path d="M16.5,8C14.57,8,13,9.57,13,11.5c0,0.539,0.133,1.044,0.351,1.5H9.649C9.867,12.544,10,12.039,10,11.5
		C10,9.57,8.43,8,6.5,8S3,9.57,3,11.5S4.57,15,6.5,15c0.015,0,0.202,0,0.5,0c0,0,7.052,0,9,0c0.298,0,0.485,0,0.5,0
		c1.93,0,3.5-1.57,3.5-3.5S18.43,8,16.5,8z M6.5,13C5.673,13,5,12.327,5,11.5S5.673,10,6.5,10S8,10.673,8,11.5S7.327,13,6.5,13z
		 M16.5,13c-0.827,0-1.5-0.673-1.5-1.5s0.673-1.5,1.5-1.5s1.5,0.673,1.5,1.5S17.327,13,16.5,13z"/>
</g>
</svg>