<?xml version="1.0" encoding="iso-8859-1"?>
<!-- Generator: Adobe Illustrator 24.1.2, SVG Export Plug-In . SVG Version: 6.00 Build 0)  -->
<svg fill="#1A1A1A" version="1.1" baseProfile="basic" id="&#x421;&#x43B;&#x43E;&#x439;_1"
	 xmlns="http://www.w3.org/2000/svg" xmlns:xlink="http://www.w3.org/1999/xlink" x="0px" y="0px" viewBox="0 0 24 24"
	 xml:space="preserve">
<path style="fill:none;stroke:#000000;stroke-width:2;stroke-linecap:round;stroke-linejoin:round;" d="M7.999,11h8.013"/>
<path style="fill:none;stroke:#000000;stroke-width:2;stroke-linecap:round;stroke-linejoin:round;" d="M8.999,22h5.995"/>
<path style="fill:none;stroke:#000000;stroke-width:2;stroke-linecap:round;stroke-linejoin:round;" d="M18.993,10v4.56
	c0,2.453-1.985,4.44-4.431,4.44H9.443c-2.445,0-4.431-1.987-4.431-4.44V10"/>
<path marker-start="none" marker-end="none" style="fill-rule:evenodd;clip-rule:evenodd;" d="M10.998,18.48v4.04h2.001v-4.04
	H10.998z"/>
<path marker-start="none" marker-end="none" style="fill:none;stroke:#000000;stroke-width:2;stroke-linecap:round;stroke-linejoin:round;" d="
	M7.994,4.64v9.733c0,0.907,0.737,1.64,1.644,1.64h4.721c0.907,0,1.644-0.733,1.644-1.64V4.64c0-0.907-0.737-1.653-1.644-1.653H9.638
	C8.731,2.987,7.994,3.733,7.994,4.64z"/>
</svg>