<?xml version="1.0" encoding="iso-8859-1"?>
<!-- Generator: Adobe Illustrator 28.4.1, SVG Export Plug-In . SVG Version: 6.00 Build 0)  -->
<svg fill="#1A1A1A" version="1.1" baseProfile="basic" id="&#x421;&#x43B;&#x43E;&#x439;_1"
	 xmlns="http://www.w3.org/2000/svg" xmlns:xlink="http://www.w3.org/1999/xlink" x="0px" y="0px" viewBox="0 0 24 24"
	 xml:space="preserve">
<path style="fill:none;stroke:#000000;stroke-width:2;stroke-linecap:round;stroke-linejoin:round;stroke-miterlimit:10;" d="M8,19
	v0.5c0,1.381,1.119,2.5,2.5,2.5h0c1.381,0,2.5-1.119,2.5-2.5V3c0-1.105,0.895-2,2-2h0c1.105,0,2,0.895,2,2c0,4-11,3.408-11,9
	c0,3.454,4.589,4,6.945,4C15.757,16,18,14.664,18,13c0-2-2.25-3-4-3c-3,0-4,2-4,2"/>
</svg>