<?xml version="1.0" encoding="iso-8859-1"?>
<!-- Generator: Adobe Illustrator 24.1.2, SVG Export Plug-In . SVG Version: 6.00 Build 0)  -->
<svg fill="#1A1A1A" version="1.1" baseProfile="basic" id="&#x421;&#x43B;&#x43E;&#x439;_1"
	 xmlns="http://www.w3.org/2000/svg" xmlns:xlink="http://www.w3.org/1999/xlink" x="0px" y="0px" viewBox="0 0 24 24"
	 xml:space="preserve">
<path marker-start="none" marker-end="none" style="fill:none;stroke:#000000;stroke-width:2;stroke-linecap:round;stroke-linejoin:round;" d="
	M10.919,4.925c2.439-2.437,6.245-2.591,8.496-0.341c2.251,2.249,2.097,6.056-0.341,8.493c-2.439,2.437-6.245,2.591-8.496,0.341
	C8.327,11.169,8.481,7.362,10.919,4.925z"/>
<path style="fill:none;stroke:#000000;stroke-width:2;stroke-linecap:round;stroke-linejoin:round;" d="M10.997,5.001l8,8"/>
<path style="fill:none;stroke:#000000;stroke-width:2;stroke-linecap:round;stroke-linejoin:round;" d="M14.309,15.015l-0.203,0.004
	c-1.801,0.115-3.176,0.739-4.309,1.625c-1.375,1.081-2.444,2.833-3.387,3.775c-0.779,0.78-2.048,0.779-2.829-0.004
	c-0.78-0.78-0.779-2.049,0.001-2.829c0.901-0.901,2.689-2.011,3.772-3.388c0.888-1.135,1.511-2.508,1.625-4.308l0.004-0.203"/>
</svg>