<?xml version="1.0" encoding="iso-8859-1"?>
<!-- Generator: Adobe Illustrator 28.2.0, SVG Export Plug-In . SVG Version: 6.00 Build 0)  -->
<svg fill="#1A1A1A" version="1.1" baseProfile="basic" xmlns="http://www.w3.org/2000/svg" xmlns:xlink="http://www.w3.org/1999/xlink" x="0px"
	 y="0px" viewBox="0 0 24 24" xml:space="preserve">
<g id="Layer_1">
</g>
<g id="Layer_2">
	
		<line style="fill:none;stroke:#000000;stroke-width:2;stroke-linecap:round;stroke-linejoin:round;stroke-miterlimit:10;" x1="12" y1="22" x2="12" y2="19"/>
	
		<line style="fill:none;stroke:#000000;stroke-width:2;stroke-linecap:round;stroke-linejoin:round;stroke-miterlimit:10;" x1="22" y1="22" x2="2" y2="2"/>
	<g>
		<path style="fill:none;stroke:#000000;stroke-width:2;stroke-linecap:round;stroke-linejoin:round;stroke-miterlimit:10;" d="
			M15,9.343C15,7.996,15,6.571,15,6c0-1.657-1.343-3-3-3c-0.916,0-1.726,0.419-2.276,1.067"/>
		<path style="fill:none;stroke:#000000;stroke-width:2;stroke-linecap:round;stroke-linejoin:round;stroke-miterlimit:10;" d="M9,9
			c0,1.239,0,2.477,0,3c0,1.657,1.343,3,3,3c0.828,0,1.578-0.336,2.121-0.879L9,9z"/>
	</g>
	<g>
		<path style="fill:none;stroke:#000000;stroke-width:2;stroke-linecap:round;stroke-linejoin:round;stroke-miterlimit:10;" d="
			M18.886,13.229C18.956,12.829,19,12.42,19,12"/>
		<path style="fill:none;stroke:#000000;stroke-width:2;stroke-linecap:round;stroke-linejoin:round;stroke-miterlimit:10;" d="
			M5,12c0,3.866,3.134,7,7,7c1.933,0,3.683-0.784,4.95-2.05"/>
	</g>
</g>
</svg>