<?xml version="1.0" encoding="iso-8859-1"?>
<!-- Generator: Adobe Illustrator 24.1.2, SVG Export Plug-In . SVG Version: 6.00 Build 0)  -->
<svg fill="#1A1A1A" version="1.1" baseProfile="basic" id="&#x421;&#x43B;&#x43E;&#x439;_1"
	 xmlns="http://www.w3.org/2000/svg" xmlns:xlink="http://www.w3.org/1999/xlink" x="0px" y="0px" viewBox="0 0 24 24"
	 xml:space="preserve">
<path marker-start="none" marker-end="none" style="fill:none;stroke:#000000;stroke-width:2;stroke-linecap:round;stroke-linejoin:round;" d="
	M11.99,11.991c2.216,0,4.016,1.796,4.016,4.008s-1.8,4.008-4.016,4.008c-2.216,0-4.016-1.796-4.016-4.008S9.774,11.991,11.99,11.991
	z"/>
<path marker-start="none" marker-end="none" style="fill:none;stroke:#000000;stroke-width:2;stroke-linecap:round;stroke-linejoin:round;" d="
	M12.005,4.993c1.104,0,2,0.901,2,2.009s-0.896,2.009-2,2.009c-1.104,0-2-0.901-2-2.009S10.901,4.993,12.005,4.993z"/>
<path marker-start="none" marker-end="none" style="fill-rule:evenodd;clip-rule:evenodd;" d="M11.99,13.998
	c1.104,0,2.001,0.897,2.001,2.001s-0.897,2.001-2.001,2.001c-1.104,0-2.001-0.897-2.001-2.001S10.886,13.998,11.99,13.998z"/>
<path marker-start="none" marker-end="none" style="fill:none;stroke:#000000;stroke-width:2;stroke-linecap:round;stroke-linejoin:round;" d="
	M5.983,4.23v16.543c0,0.68,0.553,1.233,1.233,1.233h9.553c0.68,0,1.233-0.553,1.233-1.233V4.23c0-0.68-0.553-1.233-1.233-1.233
	H7.217C6.537,2.997,5.983,3.55,5.983,4.23z"/>
</svg>