<?xml version="1.0" encoding="iso-8859-1"?>
<!-- Generator: Adobe Illustrator 28.4.1, SVG Export Plug-In . SVG Version: 6.00 Build 0)  -->
<svg fill="#1A1A1A" version="1.1" baseProfile="basic" id="&#x421;&#x43B;&#x43E;&#x439;_1"
	 xmlns="http://www.w3.org/2000/svg" xmlns:xlink="http://www.w3.org/1999/xlink" x="0px" y="0px" viewBox="0 0 24 24"
	 xml:space="preserve">
<line style="fill:none;stroke:#000000;stroke-width:2;stroke-linecap:round;stroke-linejoin:round;stroke-miterlimit:10;" x1="1" y1="7" x2="16" y2="7"/>
<line style="fill:none;stroke:#000000;stroke-width:2;stroke-linecap:round;stroke-linejoin:round;stroke-miterlimit:10;" x1="1" y1="11" x2="16" y2="11"/>
<line style="fill:none;stroke:#000000;stroke-width:2;stroke-linecap:round;stroke-linejoin:round;stroke-miterlimit:10;" x1="1" y1="15" x2="11" y2="15"/>
<line style="fill:none;stroke:#000000;stroke-width:2;stroke-linecap:round;stroke-linejoin:round;stroke-miterlimit:10;" x1="1" y1="19" x2="11" y2="19"/>
<path d="M17.5,16c0.884,0,1.5,0.527,1.5,1s-0.616,1-1.5,1S16,17.473,16,17S16.616,16,17.5,16 M17.5,14c-1.933,0-3.5,1.343-3.5,3
	s1.567,3,3.5,3s3.5-1.343,3.5-3S19.433,14,17.5,14L17.5,14z"/>
<path style="fill:none;stroke:#000000;stroke-width:2;stroke-linecap:round;stroke-linejoin:round;stroke-miterlimit:10;" d="M20,17
	V7c0,3.206,3,2.456,3,6"/>
</svg>