<?xml version="1.0" encoding="iso-8859-1"?>
<!-- Generator: Adobe Illustrator 28.2.0, SVG Export Plug-In . SVG Version: 6.00 Build 0)  -->
<svg fill="#1A1A1A" version="1.1" baseProfile="basic" id="Layer_1"
	 xmlns="http://www.w3.org/2000/svg" xmlns:xlink="http://www.w3.org/1999/xlink" x="0px" y="0px" viewBox="0 0 24 24"
	 xml:space="preserve">
<path style="fill:none;stroke:#000000;stroke-width:2;stroke-linecap:round;stroke-linejoin:round;stroke-miterlimit:10;" d="
	M3.354,18.646c-2.841-2.841-2.841-5.682-1.421-7.103C3.453,10.024,6.29,10.71,7,10s0.382-2.534,1.561-3.713C9.211,5.638,10,5,12,5
	c0,0-0.947,3.332,0.36,4.64C13.934,11.213,16,12,16,12c-0.908,3.039-3.174,2.174-4,3c-0.754,0.754,0.106,3.417-1.544,5.067
	C9.036,21.487,6.195,21.487,3.354,18.646z"/>
<line style="fill:none;stroke:#000000;stroke-width:2;stroke-linecap:round;stroke-linejoin:round;stroke-miterlimit:10;" x1="8" y1="13" x2="9" y2="14"/>
<line style="fill:none;stroke:#000000;stroke-width:2;stroke-linecap:round;stroke-linejoin:round;stroke-miterlimit:10;" x1="6" y1="15" x2="7" y2="16"/>
<path style="fill:none;stroke:#000000;stroke-width:2;stroke-linecap:round;stroke-linejoin:round;stroke-miterlimit:10;" d="M11,11
	l9.418-9.418C20.791,1.209,21.296,1,21.823,1H23"/>
<circle cx="21" cy="3" r="1"/>
<circle cx="22" cy="2" r="1"/>
</svg>