<?xml version="1.0" encoding="iso-8859-1"?>
<!-- Generator: Adobe Illustrator 24.1.2, SVG Export Plug-In . SVG Version: 6.00 Build 0)  -->
<svg fill="#1A1A1A" version="1.1" baseProfile="basic" id="&#x421;&#x43B;&#x43E;&#x439;_1"
	 xmlns="http://www.w3.org/2000/svg" xmlns:xlink="http://www.w3.org/1999/xlink" x="0px" y="0px" viewBox="0 0 24 24"
	 xml:space="preserve">
<path style="fill:none;stroke:#000000;stroke-width:2;stroke-linecap:round;stroke-linejoin:round;" d="M6.991,9.001
	c-1.104,0-2-0.896-2-2c0-2.208,1.793-4,4-4c3.311,0,6,2.688,6,6c0,4-4,9-10,12"/>
<path marker-start="none" marker-end="none" style="fill-rule:evenodd;clip-rule:evenodd;" d="M6.991,6.001c1.104,0,2,0.897,2,2.001
	s-0.896,2.001-2,2.001c-1.104,0-2-0.897-2-2.001S5.887,6.001,6.991,6.001z"/>
<path marker-start="none" marker-end="none" style="fill-rule:evenodd;clip-rule:evenodd;" d="M19.491,4.001
	c0.828,0,1.5,0.673,1.5,1.501c0,0.828-0.672,1.501-1.5,1.501c-0.828,0-1.5-0.673-1.5-1.501C17.991,4.674,18.663,4.001,19.491,4.001z
	"/>
<path marker-start="none" marker-end="none" style="fill-rule:evenodd;clip-rule:evenodd;" d="M19.491,8.998
	c0.828,0,1.5,0.673,1.5,1.501c0,0.828-0.672,1.501-1.5,1.501c-0.828,0-1.5-0.673-1.5-1.501C17.991,9.671,18.663,8.998,19.491,8.998z
	"/>
</svg>