<?xml version="1.0" encoding="iso-8859-1"?>
<!-- Generator: Adobe Illustrator 24.1.2, SVG Export Plug-In . SVG Version: 6.00 Build 0)  -->
<svg fill="#1A1A1A" version="1.1" baseProfile="basic" id="&#x421;&#x43B;&#x43E;&#x439;_1"
	 xmlns="http://www.w3.org/2000/svg" xmlns:xlink="http://www.w3.org/1999/xlink" x="0px" y="0px" viewBox="0 0 24 24"
	 xml:space="preserve">
<path style="fill:none;stroke:#000000;stroke-width:2;stroke-linecap:round;" d="M2.434,4.001c-0.904,1.461-1.435,3.169-1.435,5
	c0,1.832,0.531,3.539,1.435,5"/>
<path style="fill:none;stroke:#000000;stroke-width:2;stroke-linecap:round;" d="M5.859,5.995c-0.541,0.88-0.86,1.905-0.86,3.005
	c0,1.1,0.319,2.127,0.86,3.005"/>
<path style="fill:none;stroke:#000000;stroke-width:2;stroke-linecap:round;" d="M21.567,4.001c0.904,1.461,1.435,3.169,1.435,5
	c0,1.832-0.531,3.539-1.435,5"/>
<path style="fill:none;stroke:#000000;stroke-width:2;stroke-linecap:round;" d="M18.141,5.995c0.541,0.88,0.86,1.905,0.86,3.005
	c0,1.1-0.319,2.127-0.86,3.005"/>
<path style="fill:none;stroke:#000000;stroke-width:2;stroke-linecap:round;stroke-linejoin:round;" d="M13.999,5.001v9
	c0,1.104-0.896,2-2,2c-1.104,0-2-0.896-2-2v-9"/>
<path style="fill:none;stroke:#000000;stroke-width:2;stroke-linecap:round;stroke-linejoin:round;" d="M11.998,15.999v6.001"/>
</svg>