<?xml version="1.0" encoding="iso-8859-1"?>
<!-- Generator: Adobe Illustrator 24.1.2, SVG Export Plug-In . SVG Version: 6.00 Build 0)  -->
<svg fill="#1A1A1A" version="1.1" baseProfile="basic" id="&#x421;&#x43B;&#x43E;&#x439;_1"
	 xmlns="http://www.w3.org/2000/svg" xmlns:xlink="http://www.w3.org/1999/xlink" x="0px" y="0px" viewBox="0 0 24 24"
	 xml:space="preserve">
<path style="fill:none;stroke:#000000;stroke-width:2;stroke-linecap:round;stroke-linejoin:round;" d="M12.385,13.614
	c0.389,0.712,0.611,1.527,0.611,2.393c0,2.761-2.243,5.004-5.005,5.004c-2.763,0-5.005-2.243-5.005-5.004
	c0-2.761,2.243-5.004,5.005-5.004c0.867,0,1.683,0.221,2.395,0.611"/>
<path marker-start="none" marker-end="none" style="fill:none;stroke:#000000;stroke-width:2;stroke-linecap:round;stroke-linejoin:round;" d="
	M8.002,17.997l-2-2l10-10v-1l1.492-1.487c0.679-0.679,1.785-0.679,2.465,0l0.528,0.528c0.68,0.68,0.68,1.787,0,2.467l-1.485,1.492
	h-1L8.002,17.997z"/>
</svg>