<?xml version="1.0" encoding="iso-8859-1"?>
<!-- Generator: Adobe Illustrator 28.4.1, SVG Export Plug-In . SVG Version: 6.00 Build 0)  -->
<svg fill="#1A1A1A" version="1.1" baseProfile="basic" id="&#x421;&#x43B;&#x43E;&#x439;_1"
	 xmlns="http://www.w3.org/2000/svg" xmlns:xlink="http://www.w3.org/1999/xlink" x="0px" y="0px" viewBox="0 0 24 24"
	 xml:space="preserve">
<path d="M22,6v11H2V6H22 M22,4H2C0.895,4,0,4.895,0,6v11c0,1.105,0.895,2,2,2h20c1.105,0,2-0.895,2-2V6C24,4.895,23.105,4,22,4L22,4
	z"/>
<line style="fill:none;stroke:#000000;stroke-width:2;stroke-linecap:round;stroke-linejoin:round;stroke-miterlimit:10;" x1="6" y1="18" x2="6" y2="13"/>
<line style="fill:none;stroke:#000000;stroke-width:2;stroke-linecap:round;stroke-linejoin:round;stroke-miterlimit:10;" x1="12" y1="18" x2="12" y2="13"/>
<line style="fill:none;stroke:#000000;stroke-width:2;stroke-linecap:round;stroke-linejoin:round;stroke-miterlimit:10;" x1="18" y1="18" x2="18" y2="13"/>
<g>
	<path d="M4,13c0,0.552,0.449,1,1,1h2c0.551,0,1-0.448,1-1V9H4V13z"/>
	<path d="M10,13c0,0.552,0.449,1,1,1h2c0.551,0,1-0.448,1-1V9h-4V13z"/>
	<path d="M16,9v4c0,0.552,0.449,1,1,1h2c0.551,0,1-0.448,1-1V9H16z"/>
</g>
<line style="fill:none;stroke:#000000;stroke-width:2;stroke-linecap:round;stroke-linejoin:round;stroke-miterlimit:10;" x1="1.037" y1="9" x2="22.89" y2="9"/>
</svg>