<?xml version="1.0" encoding="iso-8859-1"?>
<!-- Generator: Adobe Illustrator 24.1.2, SVG Export Plug-In . SVG Version: 6.00 Build 0)  -->
<svg fill="#1A1A1A" version="1.1" baseProfile="basic" id="&#x421;&#x43B;&#x43E;&#x439;_1"
	 xmlns="http://www.w3.org/2000/svg" xmlns:xlink="http://www.w3.org/1999/xlink" x="0px" y="0px" viewBox="0 0 24 24"
	 xml:space="preserve">
<path marker-start="none" marker-end="none" d="M10.353,21.101L9.107,8.641C9.319,8.47,9.571,8.342,9.851,8.271
	c0.34-0.084,0.729-0.157,1.164-0.204l0.985,3.933l0.984-3.932c0.432,0.045,0.82,0.119,1.16,0.203
	c0.283,0.071,0.536,0.201,0.751,0.375l-1.252,12.455c-0.051,0.512-0.48,0.9-0.993,0.9h-1.303
	C10.834,22.001,10.405,21.613,10.353,21.101z"/>
<path marker-start="none" marker-end="none" d="M10.001,4.998c0-0.175,0-0.825,0-1c0-1.103,0.893-1.997,1.997-1.997
	c1.104,0,1.999,0.895,1.999,1.997c0,0.175,0,0.825,0,1c0,1.104-0.895,1.997-1.999,1.997C10.894,6.995,10.001,6.102,10.001,4.998z"/>
<path style="fill:none;stroke:#000000;stroke-width:2;stroke-linecap:round;stroke-linejoin:round;stroke-miterlimit:79.8403;" d="
	M9.725,9.41l-2.724,1.591l-2-1"/>
<path style="fill:none;stroke:#000000;stroke-width:2;stroke-linecap:round;stroke-linejoin:round;stroke-miterlimit:79.8403;" d="
	M14.285,9.41l2.716,1.591l2-1"/>
<path style="fill:none;stroke:#000000;stroke-width:2;stroke-linecap:round;stroke-linejoin:round;stroke-miterlimit:79.8403;" d="
	M18.001,7.001l-1-2"/>
</svg>